<svg xmlns="http://www.w3.org/2000/svg" xmlns:xlink="http://www.w3.org/1999/xlink" width="71" height="66" viewBox="0 0 71 66">
    <defs>
        <path id="a" d="M.1.091h23.196v12.466H.1V.091z"/>
    </defs>
    <g fill="none" fill-rule="evenodd">
        <path fill="#007DC5" d="M64.555 14.181s-7.46 3.043-19.205 4.713V4.934H34.727V19.87c-4.334.18-9 .106-13.904-.354V4.935H10.2v12.993a94.64 94.64 0 0 1-8.13-2.053L0 23.441s3.697 1.61 10.2 2.99v15.165h10.623V28.005c4.144.365 8.806.497 13.904.208v13.384H45.35V27.04a105.62 105.62 0 0 0 14.95-3.592l4.255-9.266z"/>
        <g transform="translate(47.733 .129)">
            <mask id="b" fill="#fff">
                <use xlink:href="#a"/>
            </mask>
            <path fill="#ED1C24" d="M.1 12.497l2.058-7.696c10.108.511 21.138-4.71 21.138-4.71L19.21 8.864S10.593 13.106.1 12.497" mask="url(#b)"/>
        </g>
        <path fill="#221F20" d="M10.123 44.92c.111.018.228.034.343.04a4.155 4.155 0 0 0 .73 0c.12-.006.235-.022.347-.04v.134c-.176.036-.295.09-.354.159-.06.069-.093.227-.093.486v4.256h1.339c.582 0 .94-.068 1.078-.21.144-.138.242-.435.307-.891h.142c-.061.413-.102.714-.12.9a5.16 5.16 0 0 0-.029.497v.065h-3.69v-.133c.175-.034.296-.082.36-.154.061-.066.096-.23.096-.489V45.7c0-.259-.035-.417-.097-.486-.063-.07-.184-.123-.36-.16v-.134zM14.468 46.805h-.122l-.253-1.835v-.016a1.192 1.192 0 0 1-.015-.15c0-.126.027-.222.083-.293a.294.294 0 0 1 .241-.104c.109 0 .191.035.243.1.057.066.085.163.085.29a.669.669 0 0 1-.006.1.469.469 0 0 1-.004.066l-.252 1.842zM18.891 44.92c.114.018.228.034.345.04a4.175 4.175 0 0 0 .73 0 3.03 3.03 0 0 0 .346-.04v.134c-.177.036-.297.09-.361.159-.062.069-.094.227-.094.486v3.865c0 .255.032.415.094.481.064.071.184.124.36.162v.13c-.128-.021-.247-.034-.367-.048a5.097 5.097 0 0 0-.684 0c-.116.014-.239.027-.369.048v-.13c.175-.038.293-.091.354-.162.06-.066.092-.226.092-.481v-1.951h-3.038v1.951c0 .257.03.419.093.485.06.07.175.123.351.158v.13a4.336 4.336 0 0 0-.712-.055 4.225 4.225 0 0 0-.71.055v-.13c.18-.035.299-.088.361-.158.065-.066.094-.228.094-.485v-3.858c0-.256-.029-.418-.094-.488-.062-.07-.182-.126-.36-.164v-.135c.099.019.2.035.311.041.109.011.24.015.398.015.158 0 .29-.004.4-.015.112-.006.218-.022.312-.04v.134c-.176.038-.291.095-.351.164-.064.07-.093.232-.093.488v1.548h3.038V45.7c0-.259-.032-.417-.092-.486-.06-.07-.179-.123-.354-.16v-.134zM23.22 42.981h.476l.934 1.405h-.231l-.94-.844-.939.844h-.233l.934-1.405zm.15 2.213c-.579 0-1.054.2-1.421.6-.368.4-.553.918-.553 1.556 0 .75.21 1.385.626 1.904.419.52.926.778 1.53.778.576 0 1.047-.201 1.415-.601.368-.401.554-.925.554-1.568 0-.738-.212-1.37-.634-1.89-.42-.52-.927-.78-1.518-.78zM20.877 47.5c0-.776.242-1.41.727-1.914.487-.502 1.104-.753 1.855-.753.737 0 1.358.275 1.851.825.492.552.74 1.246.74 2.078 0 .773-.245 1.409-.733 1.916-.49.508-1.106.761-1.85.761a2.38 2.38 0 0 1-1.85-.83c-.493-.553-.74-1.25-.74-2.083zM26.622 50.337v-.13c.175-.035.297-.088.358-.158.062-.069.096-.229.096-.486v-3.85c0-.253-.034-.417-.096-.485-.06-.067-.183-.12-.358-.157v-.129h1.843c.658 0 1.168.146 1.528.433.36.29.542.7.542 1.225 0 .467-.16.85-.48 1.14-.318.295-.732.438-1.242.438-.257 0-.5-.039-.716-.123-.217-.078-.329-.154-.329-.229 0-.017.008-.03.021-.044a.061.061 0 0 1 .043-.019c.016 0 .054.01.114.027.219.055.427.085.62.085.417 0 .757-.118 1.02-.354.265-.235.398-.537.398-.901 0-.415-.157-.736-.468-.968-.308-.234-.741-.347-1.292-.347h-.63v4.258c0 .257.03.417.095.486.058.07.177.123.351.158v.13c-.107-.02-.22-.03-.34-.041a4.219 4.219 0 0 0-.375-.014 4.293 4.293 0 0 0-.703.055M30.766 44.92c.111.018.228.034.345.04a4.223 4.223 0 0 0 1.077-.041v.135c-.172.036-.293.09-.355.159-.06.069-.09.227-.09.486v3.865c0 .256.03.416.09.485.062.07.183.123.355.158v.13c-.106-.02-.22-.03-.337-.041a4.43 4.43 0 0 0-.38-.014 4.162 4.162 0 0 0-.705.055v-.13c.177-.035.3-.088.36-.158.062-.069.095-.229.095-.485v-3.865c0-.259-.033-.417-.094-.486-.061-.07-.184-.123-.361-.16v-.134zM32.631 44.942h3.667v.196c0 .186.008.39.029.606.018.218.045.452.085.703h-.13c-.053-.444-.165-.745-.337-.904-.17-.161-.482-.239-.925-.239h-.301v4.26c0 .255.035.412.098.481.064.073.189.127.37.162v.13c-.108-.02-.221-.03-.34-.043a5.024 5.024 0 0 0-.383-.013c-.135 0-.262.004-.38.013-.118.013-.233.023-.341.043v-.13c.18-.035.304-.089.369-.162.066-.069.1-.226.1-.48v-4.26h-.303c-.445 0-.75.077-.925.238-.173.159-.281.46-.337.904h-.129c.039-.25.068-.488.084-.71.02-.22.03-.429.03-.622v-.173zM38.853 45.522l-.929 2.375h1.841l-.912-2.375zm-.706-.603c.09.02.184.035.288.042.104.01.219.014.343.014a2.704 2.704 0 0 0 .443-.029c.03.121.06.233.093.344.035.11.075.216.114.325l1.548 4.01c.07.186.15.322.238.411a.515.515 0 0 0 .316.157v.144a6.04 6.04 0 0 0-.37-.048 2.904 2.904 0 0 0-.312-.017 4.262 4.262 0 0 0-.71.065V50.2a.584.584 0 0 0 .288-.08c.058-.046.089-.112.089-.203a.436.436 0 0 0-.022-.13c-.017-.057-.033-.116-.057-.182l-.549-1.347h-2.096l-.47 1.237a2.274 2.274 0 0 0-.09.256.882.882 0 0 0-.025.173c0 .084.033.145.1.19a.7.7 0 0 0 .304.086v.138a3.875 3.875 0 0 0-.665-.065c-.104 0-.21.005-.321.017-.111.01-.228.027-.354.048v-.144a.576.576 0 0 0 .373-.213c.106-.122.215-.337.333-.645l1.388-3.53c.048-.117.08-.213.097-.285a.775.775 0 0 0 .028-.196c0-.081-.024-.14-.075-.178a.593.593 0 0 0-.27-.075l.003-.152zM41.593 44.92c.113.018.228.034.344.04a4.222 4.222 0 0 0 1.077-.041v.135c-.171.036-.292.09-.354.159-.06.069-.09.227-.09.486v4.256h1.34c.576 0 .938-.068 1.078-.21.138-.138.24-.435.302-.891h.142c-.058.413-.1.714-.12.9a5.15 5.15 0 0 0-.026.497v.065h-3.693v-.133c.175-.034.297-.082.361-.154.061-.066.098-.23.098-.489V45.7c0-.259-.037-.417-.098-.486-.064-.07-.186-.123-.36-.16v-.134zM10.123 52.718h3.42c.007.217.018.414.034.596a4.2 4.2 0 0 0 .082.514h-.13c-.063-.295-.148-.494-.26-.597-.107-.103-.36-.152-.753-.152h-1.42v2.112h.936c.264 0 .423-.033.493-.093.068-.063.122-.178.155-.354h.13c-.018.14-.036.26-.045.357a2.724 2.724 0 0 0 .003.548c.008.103.024.222.042.36h-.13c-.035-.18-.091-.306-.16-.371-.07-.066-.235-.096-.488-.096h-.936v1.8c0 .252.032.418.093.485.059.067.178.12.354.154v.133a3.454 3.454 0 0 0-.34-.044 5.504 5.504 0 0 0-.746 0c-.117.01-.23.024-.334.044v-.133c.175-.035.296-.087.36-.154.061-.067.096-.233.096-.486v-3.846c0-.258-.035-.42-.097-.492-.063-.067-.184-.119-.36-.156v-.13zM20.8 53.297l-.927 2.372h1.843l-.916-2.372zm-.704-.6c.09.018.185.031.289.042a5.52 5.52 0 0 0 .613.003.955.955 0 0 0 .17-.023 5.4 5.4 0 0 0 .211.669l1.547 4.015c.072.18.148.318.236.406a.508.508 0 0 0 .319.16v.145a5.839 5.839 0 0 0-.374-.052 3.807 3.807 0 0 0-1.021.052v-.14c.132-.008.228-.036.287-.082.061-.044.092-.111.092-.201a1.703 1.703 0 0 0-.08-.312l-.548-1.348H19.74l-.47 1.24a2.192 2.192 0 0 0-.088.256.748.748 0 0 0-.026.174c0 .08.03.143.098.185a.667.667 0 0 0 .306.088v.14a3.324 3.324 0 0 0-.984-.052c-.113.012-.231.028-.356.052v-.145a.591.591 0 0 0 .371-.213c.102-.123.214-.336.335-.644l1.388-3.533a3.04 3.04 0 0 0 .097-.284.95.95 0 0 0 .027-.194c0-.08-.025-.144-.077-.18a.528.528 0 0 0-.265-.074v-.15zM23.665 58.114v-.133c.18-.035.297-.087.361-.155.062-.066.094-.231.094-.485v-3.86c0-.257-.032-.42-.094-.489-.064-.07-.182-.126-.36-.165v-.13c.104.018.205.031.3.042a4.172 4.172 0 0 0 .52.001c.075-.005.151-.014.22-.028l3.06 4.527v-3.767c0-.256-.032-.417-.096-.486-.061-.07-.184-.123-.36-.16l.004-.13c.112.019.22.032.324.043a4.579 4.579 0 0 0 .618 0c.106-.01.213-.024.321-.043l.006.13c-.182.037-.303.093-.364.162-.064.07-.097.234-.097.484v4.618h-.356l-3.288-4.848v4.1c0 .249.032.41.096.48.063.072.183.124.36.16v.132a4.125 4.125 0 0 0-.328-.044 4.34 4.34 0 0 0-.307-.013c-.097 0-.197.005-.304.013-.103.01-.214.024-.33.044M31.342 58.09h.258v.45c.064-.007.118-.017.161-.017.048-.002.085-.005.117-.01.216 0 .384.061.51.184a.64.64 0 0 1 .19.482.63.63 0 0 1-.232.521c-.157.127-.368.19-.646.19-.142 0-.3-.023-.47-.063a6.056 6.056 0 0 1-.703-.243l.14-.317c.16.091.314.167.478.216.16.053.298.079.416.079.168 0 .293-.032.367-.09.081-.063.12-.156.12-.287 0-.112-.043-.2-.12-.266a.495.495 0 0 0-.328-.098 5.113 5.113 0 0 0-.259.024v-.755zm1.695-5.127v.306c0 .223.003.394.01.519.009.12.017.235.033.346h-.14c-.052-.386-.197-.677-.442-.869-.243-.189-.586-.285-1.032-.285-.596 0-1.094.21-1.485.637-.395.426-.592.968-.592 1.627 0 .727.222 1.335.671 1.828.443.492.993.736 1.647.736.257 0 .512-.044.768-.132.253-.087.493-.223.721-.392l-.032.402a2.508 2.508 0 0 1-1.522.503c-.812 0-1.48-.259-2.003-.778-.52-.519-.78-1.183-.78-1.994 0-.392.063-.757.197-1.103.129-.34.321-.64.573-.9a2.578 2.578 0 0 1 1.86-.794c.296 0 .573.028.829.086.255.058.495.144.72.257zM36.039 53.297l-.927 2.372h1.846l-.919-2.372zm-.703-.6c.089.018.184.031.285.042a5.612 5.612 0 0 0 .618.003c.059-.003.116-.01.173-.023a4.257 4.257 0 0 0 .207.669l1.55 4.015c.068.18.144.318.233.406a.509.509 0 0 0 .315.16v.145a5.423 5.423 0 0 0-.367-.052 3.812 3.812 0 0 0-1.025.052v-.14a.529.529 0 0 0 .289-.082c.058-.044.09-.111.09-.201a1.703 1.703 0 0 0-.08-.312l-.548-1.348h-2.098l-.468 1.24c-.043.101-.07.182-.088.256a.736.736 0 0 0-.024.174c0 .08.032.143.096.185a.666.666 0 0 0 .302.088v.14a3.388 3.388 0 0 0-.663-.066 3.267 3.267 0 0 0-.674.066v-.145a.585.585 0 0 0 .371-.213c.105-.123.215-.336.333-.644l1.389-3.533c.048-.115.08-.21.098-.284a.795.795 0 0 0 .027-.194c0-.08-.027-.144-.074-.18a.554.554 0 0 0-.27-.074l.003-.15zM39.134 52.696c.111.019.225.032.343.043a6.562 6.562 0 0 0 .734 0c.115-.01.23-.024.342-.043v.13c-.172.037-.293.09-.351.16-.06.069-.093.23-.093.486v3.868c0 .255.033.42.093.486.058.068.179.12.351.155v.133a3.32 3.32 0 0 0-.335-.044 5.604 5.604 0 0 0-.75 0 3.39 3.39 0 0 0-.334.044v-.133c.176-.035.297-.087.36-.155.062-.066.096-.231.096-.486v-3.868c0-.256-.034-.417-.095-.486-.064-.07-.185-.123-.361-.16v-.13zM44.724 52.843v.261c0 .146.008.296.016.45.01.155.022.314.042.468h-.13c-.048-.363-.178-.635-.387-.81-.21-.176-.512-.264-.906-.264-.488 0-.882.098-1.177.299-.3.198-.448.46-.448.783 0 .248.09.442.265.584.178.144.499.26.958.363l.376.077c.6.115 1.005.247 1.216.397.18.122.313.267.398.432.087.167.128.36.128.581 0 .508-.2.925-.603 1.244-.406.32-.934.481-1.587.481-.278 0-.554-.035-.828-.104a3.008 3.008 0 0 1-.752-.301c0-.076.004-.159.01-.256v-.047c0-.189-.006-.368-.016-.541a6.705 6.705 0 0 0-.041-.506l.141-.003c.054.49.2.853.444 1.083.24.232.594.347 1.051.347.485 0 .877-.123 1.185-.362.304-.242.454-.548.454-.925 0-.282-.088-.493-.266-.639-.175-.144-.578-.28-1.21-.406-.675-.131-1.143-.306-1.408-.524-.268-.217-.403-.523-.403-.912 0-.444.188-.798.563-1.069.376-.272.877-.404 1.511-.404.22 0 .446.018.68.055.236.039.474.095.724.168M11.096 60.796v4.655h.518c.354 0 .645-.025.878-.073.23-.045.446-.123.643-.226.355-.194.633-.467.832-.825a2.4 2.4 0 0 0 .299-1.207c0-.354-.063-.68-.188-.987a2.155 2.155 0 0 0-.543-.781 1.917 1.917 0 0 0-.77-.428c-.294-.085-.698-.128-1.203-.128h-.466zm-.973-.36h1.44c.534 0 .966.04 1.295.113.332.075.62.203.877.375.34.226.606.537.794.926.194.392.29.815.29 1.27 0 .461-.09.878-.271 1.244a2.35 2.35 0 0 1-.78.91 2.69 2.69 0 0 1-.887.41c-.323.084-.752.125-1.28.125h-1.478v-.13c.175-.034.295-.086.36-.158.062-.067.096-.228.096-.487V61.21c0-.256-.034-.417-.097-.486-.064-.068-.184-.116-.36-.155v-.132zM15.128 60.436h3.779c.007.216.019.416.037.599.019.177.045.353.08.513h-.132c-.06-.296-.144-.496-.256-.599-.111-.102-.366-.153-.761-.153h-1.77v2.017h1.166c.254 0 .418-.032.487-.098.07-.066.125-.186.158-.372h.132a3.879 3.879 0 0 0-.043.357 2.95 2.95 0 0 0 0 .54c.005.098.021.219.043.367h-.132c-.033-.177-.087-.298-.158-.361-.069-.064-.233-.096-.487-.096h-1.166v2.302h1.762c.488 0 .801-.063.933-.175.132-.119.237-.364.311-.741h.13c-.042.19-.074.388-.095.598-.016.211-.03.438-.03.675h-3.988v-.13c.179-.034.297-.086.362-.158.064-.067.095-.23.095-.49v-3.82c0-.254-.031-.416-.095-.488-.065-.068-.183-.117-.362-.155v-.132zM25.428 60.413a4.038 4.038 0 0 0 .711.057 4.218 4.218 0 0 0 .713-.057v.132c-.18.037-.299.091-.363.16-.06.071-.093.232-.093.484v3.87c0 .255.032.412.093.482.064.07.184.123.363.161v.128a4.071 4.071 0 0 0-.37-.044 3.798 3.798 0 0 0-.343-.017c-.111 0-.227.006-.342.017-.117.008-.24.023-.369.044v-.128c.175-.038.292-.09.357-.161.057-.07.09-.227.09-.481v-1.954h-3.038v1.954c0 .254.03.417.09.488.063.066.18.116.353.154v.128a2.923 2.923 0 0 0-.335-.039 4.37 4.37 0 0 0-.377-.014 4.18 4.18 0 0 0-.371.014c-.12.007-.228.02-.336.04v-.129c.18-.038.297-.088.361-.154.064-.071.094-.234.094-.488v-3.863c0-.253-.03-.416-.094-.486-.064-.068-.182-.126-.36-.166v-.132c.096.02.2.034.308.043.11.01.242.015.398.015.16 0 .29-.004.403-.015.112-.01.215-.023.31-.043v.132c-.174.04-.29.098-.355.166-.058.07-.089.233-.089.486v1.549h3.038v-1.557c0-.252-.033-.413-.09-.484-.065-.069-.182-.123-.357-.16v-.132zM29.52 61.017l-.93 2.373h1.844l-.915-2.373zm-.704-.604c.088.02.183.034.285.043.106.01.22.015.347.015.115 0 .207-.001.267-.01.061-.002.12-.014.176-.022a5.057 5.057 0 0 0 .207.67l1.548 4.012c.067.182.147.319.234.408a.516.516 0 0 0 .318.16v.141a8.283 8.283 0 0 0-.37-.048 3.695 3.695 0 0 0-.658 0 5.17 5.17 0 0 0-.367.048v-.137a.59.59 0 0 0 .288-.081c.063-.043.09-.111.09-.202a.62.62 0 0 0-.02-.13c-.016-.054-.034-.116-.058-.183l-.549-1.346h-2.095l-.47 1.235a1.8 1.8 0 0 0-.085.26.642.642 0 0 0-.03.174c0 .081.035.143.1.187a.659.659 0 0 0 .303.086v.137a4.795 4.795 0 0 0-.344-.048 3.278 3.278 0 0 0-.64 0c-.111.012-.23.027-.355.048v-.141a.59.59 0 0 0 .371-.215c.104-.12.215-.336.335-.644l1.388-3.532c.044-.114.079-.21.097-.285a.81.81 0 0 0 .03-.194c0-.082-.027-.14-.079-.178a.542.542 0 0 0-.266-.073l.002-.155zM32.43 65.83v-.128c.177-.038.298-.088.362-.154.062-.071.094-.234.094-.488v-3.863c0-.253-.032-.416-.094-.486-.064-.068-.185-.126-.361-.166v-.132a3.286 3.286 0 0 0 .821.048c.077-.005.149-.016.222-.03l3.057 4.527V61.19c0-.252-.032-.414-.093-.485-.066-.068-.185-.122-.363-.159l.005-.132a3.824 3.824 0 0 0 .629.058c.1 0 .204-.004.31-.015.109-.01.218-.023.327-.043l.002.132c-.178.037-.302.092-.363.163-.064.068-.096.23-.096.481v4.62h-.358l-3.287-4.846v4.097c0 .248.032.41.096.481.06.073.183.123.36.161v.128a3.274 3.274 0 0 0-.329-.039 3.138 3.138 0 0 0-.61 0c-.103.007-.215.02-.33.04M40.175 60.687c-.58 0-1.054.202-1.422.6-.367.4-.552.922-.552 1.56 0 .75.211 1.382.628 1.9.416.52.924.78 1.528.78.576 0 1.048-.2 1.415-.603.368-.403.552-.925.552-1.566 0-.737-.21-1.37-.63-1.89-.422-.52-.929-.781-1.519-.781m-2.492 2.308c0-.774.244-1.41.73-1.913.485-.505 1.103-.754 1.85-.754.74 0 1.357.279 1.85.826.496.55.743 1.245.743 2.081 0 .77-.244 1.409-.734 1.913-.486.506-1.104.76-1.85.76a2.379 2.379 0 0 1-1.85-.83c-.493-.557-.74-1.25-.74-2.083M44.843 58.857c.106 0 .2.04.278.122a.398.398 0 0 1 .115.286c0 .109-.037.206-.113.284a.375.375 0 0 1-.28.114.395.395 0 0 1-.278-.684.381.381 0 0 1 .278-.122zm-1.42 1.556a4.134 4.134 0 0 0 .707.057 4.27 4.27 0 0 0 .714-.057v.132c-.17.036-.291.091-.351.16-.064.07-.093.232-.093.487v3.866c0 .256.03.419.093.487.06.07.18.119.351.157v.128a2.833 2.833 0 0 0-.338-.039 4.287 4.287 0 0 0-.376-.014c-.13 0-.255.004-.372.014-.114.007-.228.02-.335.039v-.128c.179-.038.3-.088.363-.157.064-.068.094-.23.094-.487v-3.866c0-.255-.03-.416-.094-.487-.064-.069-.184-.124-.363-.16v-.132zm.014-1.556c.106 0 .199.04.281.122a.405.405 0 0 1 .003.57.394.394 0 0 1-.284.114.39.39 0 0 1-.393-.398c0-.111.039-.208.115-.286a.377.377 0 0 1 .278-.122zM13.75 52.718h2.183c.497 0 .891.115 1.178.352.29.233.436.553.436.957 0 .407-.168.744-.508 1.01-.335.266-.777.414-1.321.437.431.477.85.973 1.25 1.483.403.515.605.772.607.778a.736.736 0 0 0 .23.177c.08.033.187.054.315.062v.132a8.846 8.846 0 0 0-.309-.02c-.09-.002-.167-.005-.236-.005-.05 0-.11.001-.17.004l-.215.012a26.586 26.586 0 0 0-2.032-2.498c-.164-.18-.25-.28-.25-.298 0-.027.015-.047.043-.058a.577.577 0 0 1 .189-.02h.106c.56 0 .988-.098 1.29-.298a.956.956 0 0 0 .458-.847c0-.363-.135-.623-.4-.771-.266-.154-.743-.228-1.43-.228h-.44v4.26c0 .255.034.42.092.488.06.067.18.118.355.154v.133a3.622 3.622 0 0 0-.716-.057 3.554 3.554 0 0 0-.706.057v-.133c.177-.036.296-.087.359-.154.066-.067.098-.233.098-.487v-3.85c0-.255-.032-.418-.098-.487-.063-.067-.182-.119-.358-.156v-.13z"/>
    </g>
</svg>
